<mxfile host="app.diagrams.net" modified="2021-10-16T02:44:53.128Z" agent="5.0 (Macintosh; Intel Mac OS X 10_15_7) AppleWebKit/537.36 (KHTML, like Gecko) Chrome/94.0.4606.71 Safari/537.36" etag="2FeFCxFFyTG_E0slLJpE" version="15.5.4" type="github">
  <diagram id="L6dBYHcYU_VC9Gajqwvw" name="Page-1">
    <mxGraphModel dx="946" dy="614" grid="1" gridSize="10" guides="1" tooltips="1" connect="1" arrows="1" fold="1" page="1" pageScale="1" pageWidth="827" pageHeight="1169" math="0" shadow="0">
      <root>
        <mxCell id="0" />
        <mxCell id="1" parent="0" />
        <mxCell id="KWrhz2tWuLN0KLXmRrRC-3" value="" style="rounded=0;whiteSpace=wrap;html=1;fillColor=#d5e8d4;strokeColor=#82b366;" vertex="1" parent="1">
          <mxGeometry x="159" y="600" width="510" height="100" as="geometry" />
        </mxCell>
        <mxCell id="KWrhz2tWuLN0KLXmRrRC-4" value="创建团队弹窗" style="rounded=0;whiteSpace=wrap;html=1;" vertex="1" parent="1">
          <mxGeometry x="199" y="646" width="80" height="40" as="geometry" />
        </mxCell>
        <mxCell id="KWrhz2tWuLN0KLXmRrRC-6" value="切换团队弹窗" style="rounded=0;whiteSpace=wrap;html=1;" vertex="1" parent="1">
          <mxGeometry x="314" y="646" width="80" height="40" as="geometry" />
        </mxCell>
        <mxCell id="KWrhz2tWuLN0KLXmRrRC-7" value="成员列表主页" style="rounded=0;whiteSpace=wrap;html=1;" vertex="1" parent="1">
          <mxGeometry x="432" y="646" width="80" height="40" as="geometry" />
        </mxCell>
        <mxCell id="KWrhz2tWuLN0KLXmRrRC-8" value="添加成员弹窗" style="rounded=0;whiteSpace=wrap;html=1;" vertex="1" parent="1">
          <mxGeometry x="549" y="646" width="80" height="40" as="geometry" />
        </mxCell>
        <mxCell id="KWrhz2tWuLN0KLXmRrRC-9" value="通讯录页面（view）" style="rounded=0;whiteSpace=wrap;html=1;strokeColor=none;fillColor=#d5e8d4;" vertex="1" parent="1">
          <mxGeometry x="350" y="601" width="119" height="30" as="geometry" />
        </mxCell>
        <mxCell id="KWrhz2tWuLN0KLXmRrRC-10" value="" style="rounded=0;whiteSpace=wrap;html=1;fillColor=#f8cecc;strokeColor=#b85450;" vertex="1" parent="1">
          <mxGeometry x="160" y="330" width="520" height="210" as="geometry" />
        </mxCell>
        <mxCell id="KWrhz2tWuLN0KLXmRrRC-12" value="团队" style="rounded=0;whiteSpace=wrap;html=1;" vertex="1" parent="1">
          <mxGeometry x="199" y="380" width="80" height="40" as="geometry" />
        </mxCell>
        <mxCell id="KWrhz2tWuLN0KLXmRrRC-13" value="" style="rounded=0;whiteSpace=wrap;html=1;fillColor=#dae8fc;strokeColor=#6c8ebf;" vertex="1" parent="1">
          <mxGeometry x="160" y="160" width="520" height="120" as="geometry" />
        </mxCell>
        <mxCell id="KWrhz2tWuLN0KLXmRrRC-14" value="用户信息Model&lt;br&gt;User Business Model&lt;br&gt;（staffId, IsAdmin, avatar, company,....）" style="rounded=0;whiteSpace=wrap;html=1;" vertex="1" parent="1">
          <mxGeometry x="194" y="210" width="236" height="60" as="geometry" />
        </mxCell>
      </root>
    </mxGraphModel>
  </diagram>
</mxfile>
